<svg xmlns="http://www.w3.org/2000/svg" fill="none" viewBox="-1.2000000000000002 -1.2000000000000002 14 14" style="background-color: currentColor"><g id="user-circle-single--circle-geometric-human-person-single-user"><path id="Vector" stroke="#ffffff" stroke-linecap="round" stroke-linejoin="round" d="M5.8500000000000005 6.685714285714286c1.1538790714285716 0 2.0892857142857144 -0.9354066428571428 2.0892857142857144 -2.0892857142857144S7.003879071428572 2.507142857142857 5.8500000000000005 2.507142857142857 3.7607142857142857 3.4425495000000006 3.7607142857142857 4.5964285714285715 4.696120928571429 6.685714285714286 5.8500000000000005 6.685714285714286Z" stroke-width="1"></path><path id="Vector_2" stroke="#ffffff" stroke-linecap="round" stroke-linejoin="round" d="M2.2814832857142857 9.945c0.3729291428571429 -0.6121607142857144 0.8970640714285715 -1.118102142857143 1.5220112142857143 -1.469102142857143 0.6249471428571429 -0.3511002857142857 1.3296882857142858 -0.5354922857142858 2.0464887857142857 -0.5354922857142858 0.7168005 0 1.421541642857143 0.184392 2.0464887857142857 0.5354922857142858 0.6249722142857143 0.351 1.149048642857143 0.8569414285714286 1.5220279285714284 1.469102142857143" stroke-width="1"></path><path id="Vector_3" stroke="#ffffff" stroke-linecap="round" stroke-linejoin="round" d="M5.8500000000000005 11.282142857142858c3.0001307142857145 0 5.432142857142857 -2.432012142857143 5.432142857142857 -5.432142857142857C11.282142857142858 2.849911071428571 8.850130714285715 0.41785714285714287 5.8500000000000005 0.41785714285714287 2.849911071428571 0.41785714285714287 0.41785714285714287 2.849911071428571 0.41785714285714287 5.8500000000000005c0 3.0001307142857145 2.4320539285714284 5.432142857142857 5.432142857142857 5.432142857142857Z" stroke-width="1"></path></g></svg>